<svg xmlns="http://www.w3.org/2000/svg" xmlns:xlink="http://www.w3.org/1999/xlink" width="750" zoomAndPan="magnify" viewBox="0 0 562.5 149.999998" height="200" preserveAspectRatio="xMidYMid meet" version="1.0"><defs><g/><clipPath id="b8675fb397"><path d="M 0 0.0664062 L 562 0.0664062 L 562 149.933594 L 0 149.933594 Z M 0 0.0664062 " clip-rule="nonzero"/></clipPath><clipPath id="3164ef65bf"><path d="M 0 4 L 126 4 L 126 149.933594 L 0 149.933594 Z M 0 4 " clip-rule="nonzero"/></clipPath><clipPath id="c2e01aea96"><path d="M 32 37 L 73 37 L 73 119 L 32 119 Z M 32 37 " clip-rule="nonzero"/></clipPath><clipPath id="7eeb3672e5"><path d="M 14.988281 48.429688 L 69.285156 28.910156 L 94.378906 98.722656 L 40.082031 118.238281 Z M 14.988281 48.429688 " clip-rule="nonzero"/></clipPath><clipPath id="6e5e463421"><path d="M 14.988281 48.429688 L 69.285156 28.910156 L 94.378906 98.722656 L 40.082031 118.238281 Z M 14.988281 48.429688 " clip-rule="nonzero"/></clipPath></defs><g clip-path="url(#b8675fb397)"><path fill="#ffffff" d="M 0 0.0664062 L 562 0.0664062 L 562 149.933594 L 0 149.933594 Z M 0 0.0664062 " fill-opacity="1" fill-rule="nonzero"/><path fill="#020f1e" d="M 0 0.0664062 L 562 0.0664062 L 562 149.933594 L 0 149.933594 Z M 0 0.0664062 " fill-opacity="1" fill-rule="nonzero"/></g><g clip-path="url(#3164ef65bf)"><path stroke-linecap="butt" transform="matrix(1.070436, 0, 0, 1.070436, 19.928361, 28.467182)" fill="none" stroke-linejoin="miter" d="M 61.286113 59.585806 L 61.286113 66.493765 C 61.286113 68.500832 60.8847 70.234208 60.089172 71.693893 C 59.289994 73.157227 58.607591 74.237394 58.049262 74.934393 C 57.078571 76.189722 55.998404 77.149465 54.808761 77.813622 C 53.637364 78.477779 52.805344 78.977721 52.3127 79.317097 C 50.849366 80.167364 49.276555 80.660008 47.594268 80.795028 C 45.930227 80.933698 44.861008 80.999384 44.382961 80.999384 L 3.442447 80.999384 C 2.880468 80.999384 2.635971 80.718395 2.701656 80.160065 C 2.854923 79.123689 3.000892 77.353821 3.135913 74.85776 C 3.270934 72.339803 3.354865 69.570051 3.391358 66.544854 C 3.4242 63.519657 3.457043 60.665972 3.493535 57.980152 C 3.526378 55.294332 3.508132 53.254422 3.442447 51.860423 C 3.373111 50.535759 3.307426 48.590728 3.238091 46.021683 C 3.168756 43.44169 3.117667 40.763168 3.084824 37.993415 C 3.051981 35.205417 3.015489 32.698408 2.982646 30.472389 C 2.949803 28.228123 2.931557 26.768438 2.931557 26.086035 C 2.931557 25.100748 2.949803 23.845419 2.982646 22.316399 C 3.015489 20.783729 3.033735 19.38973 3.033735 18.134401 C 3.033735 16.875423 3.033735 16.178423 3.033735 16.043402 C 3.033735 15.569005 3.270934 15.328157 3.74898 15.328157 L 44.689495 15.328157 C 46.218515 15.328157 47.919048 15.506968 49.787445 15.864591 C 51.674088 16.203968 53.111877 16.722156 54.097165 17.419156 C 54.929185 17.962888 55.848787 18.69638 56.848671 19.612332 C 57.87045 20.513688 58.728015 21.838352 59.425015 23.589974 C 60.122014 25.32335 60.46869 27.720882 60.46869 30.778922 C 60.46869 33.139963 60.154857 35.001061 59.527193 36.362217 C 58.899528 37.719724 58.202529 38.953158 57.436194 40.05887 C 56.604174 41.179178 55.69552 42.054989 54.706583 42.682653 C 53.739542 43.313967 52.805344 43.864998 51.903988 44.339396 C 51.276323 44.631333 50.816523 44.985307 50.528235 45.412264 C 50.254544 45.820976 50.568376 46.269829 51.469732 46.762473 C 52.301752 47.236871 53.2396 47.620038 54.275976 47.908326 C 55.326949 48.182017 56.516593 48.948351 57.844906 50.20368 C 58.965214 51.378727 59.815481 52.692443 60.392056 54.155777 C 60.986878 55.619112 61.286113 57.429121 61.286113 59.585806 Z M 32.683586 69.402187 C 33.515606 68.362162 33.880528 67.216309 33.77835 65.957331 C 33.676172 64.702001 33.625083 63.486814 33.625083 62.311767 C 33.555748 61.056438 33.446271 59.695282 33.293004 58.235597 C 33.157984 56.772263 32.468282 55.659253 31.22755 54.896568 C 30.669221 54.46961 30.074399 54.334589 29.443085 54.487856 C 28.6804 54.487856 28.297233 54.973201 28.297233 55.940242 C 28.366568 56.772263 28.366568 57.936362 28.297233 59.432539 C 28.227898 60.928716 28.162212 62.465034 28.092877 64.048792 C 28.027191 65.610655 28.027191 66.986408 28.092877 68.176052 C 28.162212 69.351098 28.366568 70.03715 28.705944 70.241506 C 29.402944 70.73415 30.11454 70.861872 30.848032 70.624673 C 31.577875 70.369228 32.190942 69.960517 32.683586 69.402187 Z M 31.22755 42.350575 C 32.825905 41.741157 33.727261 40.617199 33.931617 38.986001 C 34.135973 37.340206 34.23815 35.851328 34.23815 34.526664 C 34.168815 33.201999 34.084884 31.917477 33.982706 30.676744 C 33.880528 29.417766 33.344093 28.228123 32.377052 27.107815 C 31.610718 26.275794 30.734907 26.104281 29.749619 26.596925 C 29.121955 26.936302 28.808122 27.421647 28.808122 28.049311 C 28.892054 30.567268 28.873808 32.800586 28.757033 34.756564 C 28.654855 36.694296 28.534431 38.920315 28.399411 41.434623 C 28.399411 41.978355 28.731489 42.32868 29.391996 42.478298 C 30.056153 42.616968 30.669221 42.573177 31.22755 42.350575 Z M 31.22755 42.350575 " stroke="#fefcfe" stroke-width="6.657221" stroke-opacity="1" stroke-miterlimit="4"/></g><g fill="#fefcfe" fill-opacity="1"><g transform="translate(19.928361, 115.172534)"><g><path d="M 65.609375 -22.921875 L 65.609375 -15.53125 C 65.609375 -13.375 65.179688 -11.507812 64.328125 -9.9375 C 63.472656 -8.375 62.75 -7.222656 62.15625 -6.484375 C 61.101562 -5.140625 59.941406 -4.113281 58.671875 -3.40625 C 57.410156 -2.695312 56.519531 -2.15625 56 -1.78125 C 54.4375 -0.894531 52.757812 -0.375 50.96875 -0.21875 C 49.1875 -0.0703125 48.03125 0 47.5 0 L 3.6875 0 C 3.09375 0 2.832031 -0.296875 2.90625 -0.890625 C 3.050781 -2.015625 3.195312 -3.914062 3.34375 -6.59375 C 3.5 -9.28125 3.59375 -12.242188 3.625 -15.484375 C 3.664062 -18.722656 3.703125 -21.773438 3.734375 -24.640625 C 3.773438 -27.515625 3.757812 -29.695312 3.6875 -31.1875 C 3.613281 -32.601562 3.539062 -34.6875 3.46875 -37.4375 C 3.394531 -40.195312 3.335938 -43.066406 3.296875 -46.046875 C 3.253906 -49.035156 3.210938 -51.71875 3.171875 -54.09375 C 3.140625 -56.476562 3.125 -58.046875 3.125 -58.796875 C 3.125 -59.835938 3.140625 -61.175781 3.171875 -62.8125 C 3.210938 -64.457031 3.234375 -65.945312 3.234375 -67.28125 C 3.234375 -68.625 3.234375 -69.375 3.234375 -69.53125 C 3.234375 -70.050781 3.5 -70.3125 4.03125 -70.3125 L 47.84375 -70.3125 C 49.476562 -70.3125 51.300781 -70.125 53.3125 -69.75 C 55.332031 -69.375 56.863281 -68.816406 57.90625 -68.078125 C 58.800781 -67.484375 59.785156 -66.703125 60.859375 -65.734375 C 61.941406 -64.765625 62.851562 -63.347656 63.59375 -61.484375 C 64.34375 -59.617188 64.71875 -57.046875 64.71875 -53.765625 C 64.71875 -51.234375 64.378906 -49.238281 63.703125 -47.78125 C 63.035156 -46.332031 62.296875 -45.007812 61.484375 -43.8125 C 60.585938 -42.625 59.617188 -41.691406 58.578125 -41.015625 C 57.535156 -40.347656 56.53125 -39.753906 55.5625 -39.234375 C 54.882812 -38.929688 54.394531 -38.554688 54.09375 -38.109375 C 53.800781 -37.671875 54.140625 -37.191406 55.109375 -36.671875 C 56.003906 -36.140625 57.007812 -35.722656 58.125 -35.421875 C 59.238281 -35.128906 60.503906 -34.3125 61.921875 -32.96875 C 63.117188 -31.707031 64.03125 -30.289062 64.65625 -28.71875 C 65.289062 -27.15625 65.609375 -25.222656 65.609375 -22.921875 Z M 34.984375 -12.40625 C 35.878906 -13.519531 36.269531 -14.75 36.15625 -16.09375 C 36.050781 -17.4375 36 -18.742188 36 -20.015625 C 35.914062 -21.347656 35.800781 -22.796875 35.65625 -24.359375 C 35.507812 -25.929688 34.765625 -27.128906 33.421875 -27.953125 C 32.828125 -28.390625 32.191406 -28.535156 31.515625 -28.390625 C 30.703125 -28.390625 30.296875 -27.867188 30.296875 -26.828125 C 30.367188 -25.929688 30.367188 -24.679688 30.296875 -23.078125 C 30.222656 -21.472656 30.144531 -19.832031 30.0625 -18.15625 C 29.988281 -16.488281 29.988281 -15.019531 30.0625 -13.75 C 30.144531 -12.476562 30.367188 -11.734375 30.734375 -11.515625 C 31.484375 -10.992188 32.25 -10.863281 33.03125 -11.125 C 33.8125 -11.382812 34.460938 -11.8125 34.984375 -12.40625 Z M 33.421875 -41.359375 C 35.140625 -42.023438 36.109375 -43.234375 36.328125 -44.984375 C 36.554688 -46.742188 36.671875 -48.332031 36.671875 -49.75 C 36.585938 -51.15625 36.488281 -52.53125 36.375 -53.875 C 36.269531 -55.21875 35.695312 -56.484375 34.65625 -57.671875 C 33.832031 -58.566406 32.898438 -58.753906 31.859375 -58.234375 C 31.191406 -57.859375 30.859375 -57.335938 30.859375 -56.671875 C 30.929688 -53.992188 30.910156 -51.609375 30.796875 -49.515625 C 30.679688 -47.429688 30.550781 -45.046875 30.40625 -42.359375 C 30.40625 -41.765625 30.757812 -41.394531 31.46875 -41.25 C 32.175781 -41.101562 32.828125 -41.140625 33.421875 -41.359375 Z M 33.421875 -41.359375 "/></g></g></g><g clip-path="url(#c2e01aea96)"><g clip-path="url(#7eeb3672e5)"><g clip-path="url(#6e5e463421)"><path fill="#020f1e" d="M 44.613281 37.78125 L 32.933594 79.332031 L 46.132812 79.03125 L 40.1875 118.527344 L 68.132812 66.679688 L 55.660156 66.835938 L 72.304688 37.734375 Z M 44.613281 37.78125 " fill-opacity="1" fill-rule="nonzero"/></g></g></g><g fill="#fefcfe" fill-opacity="1"><g transform="translate(89.134825, 112.871435)"><g><path d="M 34.5625 -2.125 C 32.695312 -1.300781 30.984375 -0.738281 29.421875 -0.4375 C 27.859375 -0.144531 26.703125 0 25.953125 0 L 20.703125 0 C 18.015625 0 15.363281 -0.5 12.75 -1.5 C 10.144531 -2.507812 8.054688 -4.207031 6.484375 -6.59375 C 5.367188 -8.3125 4.566406 -10.328125 4.078125 -12.640625 C 3.597656 -14.953125 3.300781 -17.226562 3.1875 -19.46875 C 3.070312 -21.707031 3.015625 -23.5 3.015625 -24.84375 L 3.015625 -69.59375 C 3.015625 -70.113281 3.203125 -70.375 3.578125 -70.375 L 19.125 -70.375 C 19.5 -70.375 19.6875 -70.113281 19.6875 -69.59375 C 19.6875 -67.570312 19.6875 -65.515625 19.6875 -63.421875 C 19.6875 -61.335938 19.6875 -59.289062 19.6875 -57.28125 C 19.6875 -56.238281 19.6875 -54.691406 19.6875 -52.640625 C 19.6875 -50.585938 19.664062 -48.40625 19.625 -46.09375 C 19.59375 -43.78125 19.59375 -41.671875 19.625 -39.765625 C 19.664062 -37.867188 19.6875 -36.546875 19.6875 -35.796875 C 19.832031 -34.234375 20 -32.6875 20.1875 -31.15625 C 20.375 -29.625 20.769531 -28.5625 21.375 -27.96875 C 22.039062 -27.300781 22.726562 -27.078125 23.4375 -27.296875 C 24.144531 -27.523438 24.613281 -27.785156 24.84375 -28.078125 C 25.582031 -29.203125 25.953125 -30.546875 25.953125 -32.109375 C 25.953125 -33.671875 25.988281 -35.195312 26.0625 -36.6875 C 26.0625 -37.4375 26.0625 -38.835938 26.0625 -40.890625 C 26.0625 -42.941406 26.0625 -45.21875 26.0625 -47.71875 C 26.0625 -50.21875 26.078125 -52.582031 26.109375 -54.8125 C 26.148438 -57.050781 26.171875 -58.769531 26.171875 -59.96875 C 26.253906 -61.601562 26.296875 -63.222656 26.296875 -64.828125 C 26.296875 -66.429688 26.253906 -68.019531 26.171875 -69.59375 C 26.171875 -70.113281 26.320312 -70.375 26.625 -70.375 L 43.515625 -70.375 C 43.890625 -70.375 44.078125 -70.113281 44.078125 -69.59375 L 44.078125 -27.078125 C 44.078125 -25.054688 44.039062 -22.851562 43.96875 -20.46875 C 43.894531 -18.082031 43.632812 -15.75 43.1875 -13.46875 C 42.738281 -11.195312 41.953125 -9.28125 40.828125 -7.71875 C 39.710938 -6.082031 38.765625 -4.890625 37.984375 -4.140625 C 37.203125 -3.390625 36.0625 -2.71875 34.5625 -2.125 Z M 34.5625 -2.125 "/></g></g></g><g fill="#fefcfe" fill-opacity="1"><g transform="translate(133.208981, 112.871435)"><g><path d="M 43.859375 -14.875 C 43.859375 -14.0625 43.859375 -12.867188 43.859375 -11.296875 C 43.859375 -9.734375 43.859375 -8.113281 43.859375 -6.4375 C 43.859375 -4.757812 43.875 -3.34375 43.90625 -2.1875 C 43.945312 -1.03125 43.96875 -0.453125 43.96875 -0.453125 C 43.96875 -0.148438 43.851562 0 43.625 0 L 3.015625 0 C 2.867188 0 2.796875 -0.148438 2.796875 -0.453125 C 2.796875 -1.941406 2.832031 -3.445312 2.90625 -4.96875 C 2.976562 -6.5 3.050781 -8.015625 3.125 -9.515625 C 3.351562 -12.492188 3.46875 -15.8125 3.46875 -19.46875 C 3.46875 -23.125 3.46875 -26.441406 3.46875 -29.421875 L 3.46875 -29.53125 C 3.46875 -29.6875 3.503906 -29.800781 3.578125 -29.875 C 5.441406 -30.988281 7.210938 -32.066406 8.890625 -33.109375 C 10.566406 -34.160156 12.335938 -35.171875 14.203125 -36.140625 C 15.703125 -36.878906 17.304688 -37.882812 19.015625 -39.15625 C 20.734375 -40.425781 22.488281 -41.992188 24.28125 -43.859375 C 24.875 -44.453125 25.097656 -45.234375 24.953125 -46.203125 C 24.722656 -47.242188 24.273438 -47.765625 23.609375 -47.765625 C 20.847656 -47.617188 18.5 -47.394531 16.5625 -47.09375 C 14.625 -46.800781 12.679688 -46.539062 10.734375 -46.3125 C 8.796875 -46.09375 6.484375 -45.945312 3.796875 -45.875 C 3.578125 -45.875 3.46875 -46.019531 3.46875 -46.3125 C 3.46875 -49.445312 3.429688 -52.46875 3.359375 -55.375 C 3.285156 -58.28125 3.25 -61.265625 3.25 -64.328125 C 3.25 -66.265625 3.207031 -68.128906 3.125 -69.921875 C 3.050781 -70.222656 3.128906 -70.375 3.359375 -70.375 L 43.625 -70.375 C 43.78125 -70.375 43.859375 -70.222656 43.859375 -69.921875 C 43.859375 -69.921875 43.859375 -69.210938 43.859375 -67.796875 C 43.859375 -66.378906 43.875 -64.566406 43.90625 -62.359375 C 43.945312 -60.160156 43.96875 -57.847656 43.96875 -55.421875 C 43.96875 -53.003906 43.96875 -50.695312 43.96875 -48.5 C 43.96875 -46.300781 43.96875 -44.507812 43.96875 -43.125 C 43.96875 -41.75 43.96875 -41.0625 43.96875 -41.0625 C 43.96875 -40.90625 43.929688 -40.789062 43.859375 -40.71875 C 41.316406 -38.5625 39.09375 -36.753906 37.1875 -35.296875 C 35.289062 -33.835938 33.351562 -32.378906 31.375 -30.921875 C 29.40625 -29.472656 27.039062 -27.664062 24.28125 -25.5 C 23.601562 -24.976562 23.375 -24.195312 23.59375 -23.15625 C 23.820312 -22.113281 24.273438 -21.59375 24.953125 -21.59375 C 27.484375 -21.59375 29.585938 -21.703125 31.265625 -21.921875 C 32.941406 -22.148438 34.710938 -22.429688 36.578125 -22.765625 C 38.441406 -23.097656 40.867188 -23.488281 43.859375 -23.9375 C 44.003906 -23.9375 44.078125 -23.789062 44.078125 -23.5 C 44.078125 -21.632812 44.039062 -20.195312 43.96875 -19.1875 C 43.894531 -18.175781 43.859375 -16.738281 43.859375 -14.875 Z M 43.859375 -14.875 "/></g></g></g><g fill="#fefcfe" fill-opacity="1"><g transform="translate(177.171261, 112.871435)"><g><path d="M 43.859375 -14.875 C 43.859375 -14.0625 43.859375 -12.867188 43.859375 -11.296875 C 43.859375 -9.734375 43.859375 -8.113281 43.859375 -6.4375 C 43.859375 -4.757812 43.875 -3.34375 43.90625 -2.1875 C 43.945312 -1.03125 43.96875 -0.453125 43.96875 -0.453125 C 43.96875 -0.148438 43.851562 0 43.625 0 L 3.015625 0 C 2.867188 0 2.796875 -0.148438 2.796875 -0.453125 C 2.796875 -1.941406 2.832031 -3.445312 2.90625 -4.96875 C 2.976562 -6.5 3.050781 -8.015625 3.125 -9.515625 C 3.351562 -12.492188 3.46875 -15.8125 3.46875 -19.46875 C 3.46875 -23.125 3.46875 -26.441406 3.46875 -29.421875 L 3.46875 -29.53125 C 3.46875 -29.6875 3.503906 -29.800781 3.578125 -29.875 C 5.441406 -30.988281 7.210938 -32.066406 8.890625 -33.109375 C 10.566406 -34.160156 12.335938 -35.171875 14.203125 -36.140625 C 15.703125 -36.878906 17.304688 -37.882812 19.015625 -39.15625 C 20.734375 -40.425781 22.488281 -41.992188 24.28125 -43.859375 C 24.875 -44.453125 25.097656 -45.234375 24.953125 -46.203125 C 24.722656 -47.242188 24.273438 -47.765625 23.609375 -47.765625 C 20.847656 -47.617188 18.5 -47.394531 16.5625 -47.09375 C 14.625 -46.800781 12.679688 -46.539062 10.734375 -46.3125 C 8.796875 -46.09375 6.484375 -45.945312 3.796875 -45.875 C 3.578125 -45.875 3.46875 -46.019531 3.46875 -46.3125 C 3.46875 -49.445312 3.429688 -52.46875 3.359375 -55.375 C 3.285156 -58.28125 3.25 -61.265625 3.25 -64.328125 C 3.25 -66.265625 3.207031 -68.128906 3.125 -69.921875 C 3.050781 -70.222656 3.128906 -70.375 3.359375 -70.375 L 43.625 -70.375 C 43.78125 -70.375 43.859375 -70.222656 43.859375 -69.921875 C 43.859375 -69.921875 43.859375 -69.210938 43.859375 -67.796875 C 43.859375 -66.378906 43.875 -64.566406 43.90625 -62.359375 C 43.945312 -60.160156 43.96875 -57.847656 43.96875 -55.421875 C 43.96875 -53.003906 43.96875 -50.695312 43.96875 -48.5 C 43.96875 -46.300781 43.96875 -44.507812 43.96875 -43.125 C 43.96875 -41.75 43.96875 -41.0625 43.96875 -41.0625 C 43.96875 -40.90625 43.929688 -40.789062 43.859375 -40.71875 C 41.316406 -38.5625 39.09375 -36.753906 37.1875 -35.296875 C 35.289062 -33.835938 33.351562 -32.378906 31.375 -30.921875 C 29.40625 -29.472656 27.039062 -27.664062 24.28125 -25.5 C 23.601562 -24.976562 23.375 -24.195312 23.59375 -23.15625 C 23.820312 -22.113281 24.273438 -21.59375 24.953125 -21.59375 C 27.484375 -21.59375 29.585938 -21.703125 31.265625 -21.921875 C 32.941406 -22.148438 34.710938 -22.429688 36.578125 -22.765625 C 38.441406 -23.097656 40.867188 -23.488281 43.859375 -23.9375 C 44.003906 -23.9375 44.078125 -23.789062 44.078125 -23.5 C 44.078125 -21.632812 44.039062 -20.195312 43.96875 -19.1875 C 43.894531 -18.175781 43.859375 -16.738281 43.859375 -14.875 Z M 43.859375 -14.875 "/></g></g></g><g fill="#46d5d0" fill-opacity="1"><g transform="translate(218.837639, 115.279711)"><g><path d="M 65.65625 -22.9375 L 65.65625 -15.546875 C 65.65625 -13.378906 65.226562 -11.515625 64.375 -9.953125 C 63.519531 -8.390625 62.789062 -7.234375 62.1875 -6.484375 C 61.144531 -5.140625 59.988281 -4.113281 58.71875 -3.40625 C 57.457031 -2.695312 56.566406 -2.160156 56.046875 -1.796875 C 54.472656 -0.898438 52.789062 -0.375 51 -0.21875 C 49.21875 -0.0703125 48.066406 0 47.546875 0 L 3.6875 0 C 3.09375 0 2.832031 -0.296875 2.90625 -0.890625 C 3.050781 -2.015625 3.195312 -3.914062 3.34375 -6.59375 C 3.5 -9.28125 3.59375 -12.242188 3.625 -15.484375 C 3.664062 -18.734375 3.703125 -21.789062 3.734375 -24.65625 C 3.773438 -27.53125 3.757812 -29.710938 3.6875 -31.203125 C 3.613281 -32.617188 3.539062 -34.707031 3.46875 -37.46875 C 3.394531 -40.226562 3.335938 -43.097656 3.296875 -46.078125 C 3.265625 -49.066406 3.226562 -51.753906 3.1875 -54.140625 C 3.144531 -56.523438 3.125 -58.09375 3.125 -58.84375 C 3.125 -59.882812 3.144531 -61.222656 3.1875 -62.859375 C 3.226562 -64.503906 3.25 -66 3.25 -67.34375 C 3.25 -68.6875 3.25 -69.429688 3.25 -69.578125 C 3.25 -70.097656 3.507812 -70.359375 4.03125 -70.359375 L 47.875 -70.359375 C 49.519531 -70.359375 51.347656 -70.171875 53.359375 -69.796875 C 55.367188 -69.421875 56.894531 -68.863281 57.9375 -68.125 C 58.832031 -67.53125 59.820312 -66.742188 60.90625 -65.765625 C 61.988281 -64.796875 62.898438 -63.378906 63.640625 -61.515625 C 64.390625 -59.648438 64.765625 -57.078125 64.765625 -53.796875 C 64.765625 -51.265625 64.425781 -49.269531 63.75 -47.8125 C 63.082031 -46.363281 62.335938 -45.039062 61.515625 -43.84375 C 60.628906 -42.65625 59.660156 -41.722656 58.609375 -41.046875 C 57.566406 -40.378906 56.5625 -39.785156 55.59375 -39.265625 C 54.925781 -38.960938 54.441406 -38.585938 54.140625 -38.140625 C 53.835938 -37.691406 54.171875 -37.207031 55.140625 -36.6875 C 56.035156 -36.164062 57.039062 -35.753906 58.15625 -35.453125 C 59.28125 -35.160156 60.550781 -34.34375 61.96875 -33 C 63.164062 -31.726562 64.078125 -30.3125 64.703125 -28.75 C 65.335938 -27.1875 65.65625 -25.25 65.65625 -22.9375 Z M 35.015625 -12.421875 C 35.910156 -13.535156 36.300781 -14.765625 36.1875 -16.109375 C 36.070312 -17.453125 36.015625 -18.753906 36.015625 -20.015625 C 35.941406 -21.359375 35.828125 -22.8125 35.671875 -24.375 C 35.523438 -25.945312 34.785156 -27.144531 33.453125 -27.96875 C 32.847656 -28.414062 32.210938 -28.5625 31.546875 -28.40625 C 30.722656 -28.40625 30.3125 -27.882812 30.3125 -26.84375 C 30.382812 -25.945312 30.382812 -24.695312 30.3125 -23.09375 C 30.238281 -21.488281 30.164062 -19.847656 30.09375 -18.171875 C 30.019531 -16.492188 30.019531 -15.019531 30.09375 -13.75 C 30.164062 -12.488281 30.390625 -11.742188 30.765625 -11.515625 C 31.503906 -10.992188 32.265625 -10.863281 33.046875 -11.125 C 33.835938 -11.382812 34.492188 -11.816406 35.015625 -12.421875 Z M 33.453125 -41.390625 C 35.160156 -42.054688 36.125 -43.265625 36.34375 -45.015625 C 36.570312 -46.773438 36.6875 -48.363281 36.6875 -49.78125 C 36.613281 -51.195312 36.519531 -52.570312 36.40625 -53.90625 C 36.300781 -55.25 35.722656 -56.519531 34.671875 -57.71875 C 33.859375 -58.613281 32.925781 -58.800781 31.875 -58.28125 C 31.207031 -57.90625 30.875 -57.382812 30.875 -56.71875 C 30.945312 -54.03125 30.925781 -51.640625 30.8125 -49.546875 C 30.707031 -47.460938 30.578125 -45.078125 30.421875 -42.390625 C 30.421875 -41.796875 30.773438 -41.421875 31.484375 -41.265625 C 32.191406 -41.117188 32.847656 -41.160156 33.453125 -41.390625 Z M 33.453125 -41.390625 "/></g></g></g><g fill="#46d5d0" fill-opacity="1"><g transform="translate(283.929408, 115.279711)"><g><path d="M 64.875 -48.65625 C 64.875 -46.71875 64.875 -44.367188 64.875 -41.609375 C 64.875 -38.847656 64.875 -36.085938 64.875 -33.328125 C 64.875 -30.566406 64.875 -28.257812 64.875 -26.40625 C 64.875 -23.488281 64.519531 -20.984375 63.8125 -18.890625 C 63.101562 -16.804688 62.191406 -14.722656 61.078125 -12.640625 C 60.109375 -10.847656 58.914062 -9.257812 57.5 -7.875 C 56.082031 -6.5 54.585938 -5.328125 53.015625 -4.359375 C 51.078125 -3.171875 49.117188 -2.164062 47.140625 -1.34375 C 45.171875 -0.519531 42.546875 -0.109375 39.265625 -0.109375 C 38.816406 -0.109375 37.828125 -0.109375 36.296875 -0.109375 C 34.765625 -0.109375 33.101562 -0.109375 31.3125 -0.109375 C 29.53125 -0.109375 27.945312 -0.109375 26.5625 -0.109375 C 25.1875 -0.109375 24.460938 -0.109375 24.390625 -0.109375 C 21.328125 -0.253906 18.453125 -1.015625 15.765625 -2.390625 C 13.085938 -3.773438 10.925781 -5.289062 9.28125 -6.9375 C 8.382812 -7.832031 7.429688 -9.132812 6.421875 -10.84375 C 5.421875 -12.5625 4.582031 -14.351562 3.90625 -16.21875 C 3.238281 -18.082031 2.90625 -19.722656 2.90625 -21.140625 C 2.90625 -22.179688 2.90625 -23.894531 2.90625 -26.28125 C 2.90625 -28.664062 2.90625 -31.3125 2.90625 -34.21875 C 2.90625 -37.132812 2.90625 -39.929688 2.90625 -42.609375 C 2.90625 -45.296875 2.90625 -47.460938 2.90625 -49.109375 C 2.90625 -52.316406 3.40625 -55.128906 4.40625 -57.546875 C 5.414062 -59.972656 6.59375 -61.894531 7.9375 -63.3125 C 10.320312 -65.84375 12.578125 -67.535156 14.703125 -68.390625 C 16.828125 -69.253906 19.421875 -69.875 22.484375 -70.25 C 22.554688 -70.320312 23.375 -70.335938 24.9375 -70.296875 C 26.507812 -70.265625 28.429688 -70.25 30.703125 -70.25 C 32.972656 -70.25 35.242188 -70.25 37.515625 -70.25 C 39.796875 -70.25 41.644531 -70.25 43.0625 -70.25 C 45.96875 -70.25 48.648438 -69.835938 51.109375 -69.015625 C 53.578125 -68.191406 55.816406 -66.8125 57.828125 -64.875 C 59.921875 -62.9375 61.617188 -60.457031 62.921875 -57.4375 C 64.222656 -54.414062 64.875 -51.488281 64.875 -48.65625 Z M 29.3125 -28.53125 C 29.3125 -25.613281 29.703125 -23.6875 30.484375 -22.75 C 31.265625 -21.820312 32.253906 -21.359375 33.453125 -21.359375 C 34.941406 -21.359375 35.867188 -22.03125 36.234375 -23.375 C 36.609375 -24.71875 36.796875 -25.800781 36.796875 -26.625 C 36.796875 -29.457031 36.851562 -32.4375 36.96875 -35.5625 C 37.082031 -38.695312 37.101562 -41.3125 37.03125 -43.40625 C 36.875 -45.113281 36.609375 -46.5625 36.234375 -47.75 C 35.867188 -48.945312 34.941406 -49.546875 33.453125 -49.546875 C 32.109375 -49.546875 31.15625 -49.191406 30.59375 -48.484375 C 30.03125 -47.773438 29.675781 -46.953125 29.53125 -46.015625 C 29.382812 -45.085938 29.3125 -44.328125 29.3125 -43.734375 C 29.3125 -42.992188 29.3125 -41.78125 29.3125 -40.09375 C 29.3125 -38.414062 29.3125 -36.535156 29.3125 -34.453125 C 29.3125 -32.367188 29.3125 -30.394531 29.3125 -28.53125 Z M 29.3125 -28.53125 "/></g></g></g><g fill="#46d5d0" fill-opacity="1"><g transform="translate(348.573824, 115.279711)"><g><path d="M 64.875 -48.65625 C 64.875 -46.71875 64.875 -44.367188 64.875 -41.609375 C 64.875 -38.847656 64.875 -36.085938 64.875 -33.328125 C 64.875 -30.566406 64.875 -28.257812 64.875 -26.40625 C 64.875 -23.488281 64.519531 -20.984375 63.8125 -18.890625 C 63.101562 -16.804688 62.191406 -14.722656 61.078125 -12.640625 C 60.109375 -10.847656 58.914062 -9.257812 57.5 -7.875 C 56.082031 -6.5 54.585938 -5.328125 53.015625 -4.359375 C 51.078125 -3.171875 49.117188 -2.164062 47.140625 -1.34375 C 45.171875 -0.519531 42.546875 -0.109375 39.265625 -0.109375 C 38.816406 -0.109375 37.828125 -0.109375 36.296875 -0.109375 C 34.765625 -0.109375 33.101562 -0.109375 31.3125 -0.109375 C 29.53125 -0.109375 27.945312 -0.109375 26.5625 -0.109375 C 25.1875 -0.109375 24.460938 -0.109375 24.390625 -0.109375 C 21.328125 -0.253906 18.453125 -1.015625 15.765625 -2.390625 C 13.085938 -3.773438 10.925781 -5.289062 9.28125 -6.9375 C 8.382812 -7.832031 7.429688 -9.132812 6.421875 -10.84375 C 5.421875 -12.5625 4.582031 -14.351562 3.90625 -16.21875 C 3.238281 -18.082031 2.90625 -19.722656 2.90625 -21.140625 C 2.90625 -22.179688 2.90625 -23.894531 2.90625 -26.28125 C 2.90625 -28.664062 2.90625 -31.3125 2.90625 -34.21875 C 2.90625 -37.132812 2.90625 -39.929688 2.90625 -42.609375 C 2.90625 -45.296875 2.90625 -47.460938 2.90625 -49.109375 C 2.90625 -52.316406 3.40625 -55.128906 4.40625 -57.546875 C 5.414062 -59.972656 6.59375 -61.894531 7.9375 -63.3125 C 10.320312 -65.84375 12.578125 -67.535156 14.703125 -68.390625 C 16.828125 -69.253906 19.421875 -69.875 22.484375 -70.25 C 22.554688 -70.320312 23.375 -70.335938 24.9375 -70.296875 C 26.507812 -70.265625 28.429688 -70.25 30.703125 -70.25 C 32.972656 -70.25 35.242188 -70.25 37.515625 -70.25 C 39.796875 -70.25 41.644531 -70.25 43.0625 -70.25 C 45.96875 -70.25 48.648438 -69.835938 51.109375 -69.015625 C 53.578125 -68.191406 55.816406 -66.8125 57.828125 -64.875 C 59.921875 -62.9375 61.617188 -60.457031 62.921875 -57.4375 C 64.222656 -54.414062 64.875 -51.488281 64.875 -48.65625 Z M 29.3125 -28.53125 C 29.3125 -25.613281 29.703125 -23.6875 30.484375 -22.75 C 31.265625 -21.820312 32.253906 -21.359375 33.453125 -21.359375 C 34.941406 -21.359375 35.867188 -22.03125 36.234375 -23.375 C 36.609375 -24.71875 36.796875 -25.800781 36.796875 -26.625 C 36.796875 -29.457031 36.851562 -32.4375 36.96875 -35.5625 C 37.082031 -38.695312 37.101562 -41.3125 37.03125 -43.40625 C 36.875 -45.113281 36.609375 -46.5625 36.234375 -47.75 C 35.867188 -48.945312 34.941406 -49.546875 33.453125 -49.546875 C 32.109375 -49.546875 31.15625 -49.191406 30.59375 -48.484375 C 30.03125 -47.773438 29.675781 -46.953125 29.53125 -46.015625 C 29.382812 -45.085938 29.3125 -44.328125 29.3125 -43.734375 C 29.3125 -42.992188 29.3125 -41.78125 29.3125 -40.09375 C 29.3125 -38.414062 29.3125 -36.535156 29.3125 -34.453125 C 29.3125 -32.367188 29.3125 -30.394531 29.3125 -28.53125 Z M 29.3125 -28.53125 "/></g></g></g><g fill="#46d5d0" fill-opacity="1"><g transform="translate(413.218239, 115.279711)"><g><path d="M 64.875 -70.359375 C 64.945312 -70.285156 65.023438 -70.175781 65.109375 -70.03125 C 65.253906 -68.53125 65.304688 -67.273438 65.265625 -66.265625 C 65.234375 -65.265625 65.175781 -64.148438 65.09375 -62.921875 C 65.019531 -61.691406 64.984375 -59.847656 64.984375 -57.390625 C 64.984375 -56.492188 65.054688 -55.1875 65.203125 -53.46875 C 65.359375 -51.75 65.472656 -50.441406 65.546875 -49.546875 C 65.546875 -48.878906 65.210938 -48.546875 64.546875 -48.546875 C 62.003906 -48.617188 59.09375 -48.75 55.8125 -48.9375 C 52.53125 -49.125 49.453125 -49.289062 46.578125 -49.4375 C 43.710938 -49.59375 41.644531 -49.671875 40.375 -49.671875 C 37.625 -49.585938 35.222656 -49.359375 33.171875 -48.984375 C 31.117188 -48.617188 30.09375 -47.765625 30.09375 -46.421875 C 30.09375 -45.003906 30.484375 -44.144531 31.265625 -43.84375 C 32.046875 -43.550781 32.734375 -43.367188 33.328125 -43.296875 C 35.347656 -42.921875 37.023438 -42.785156 38.359375 -42.890625 C 39.703125 -43.003906 41.566406 -42.988281 43.953125 -42.84375 C 46.421875 -42.695312 48.847656 -42.359375 51.234375 -41.828125 C 53.617188 -41.304688 55.742188 -40.265625 57.609375 -38.703125 C 58.648438 -37.804688 59.785156 -36.664062 61.015625 -35.28125 C 62.242188 -33.90625 63.285156 -31.910156 64.140625 -29.296875 C 65.003906 -26.691406 65.4375 -23.003906 65.4375 -18.234375 C 65.4375 -17.191406 65.191406 -15.660156 64.703125 -13.640625 C 64.222656 -11.628906 63.273438 -9.539062 61.859375 -7.375 C 61.179688 -6.40625 60.097656 -5.34375 58.609375 -4.1875 C 57.117188 -3.03125 55.441406 -2.15625 53.578125 -1.5625 C 51.117188 -0.820312 48.65625 -0.410156 46.1875 -0.328125 C 43.726562 -0.253906 41.941406 -0.21875 40.828125 -0.21875 C 40.523438 -0.21875 39.421875 -0.195312 37.515625 -0.15625 C 35.617188 -0.125 33.269531 -0.109375 30.46875 -0.109375 C 27.675781 -0.109375 24.75 -0.0859375 21.6875 -0.046875 C 18.632812 -0.015625 15.75 0 13.03125 0 C 10.3125 0 8.113281 0 6.4375 0 C 4.757812 0 3.921875 0 3.921875 0 C 3.242188 0 2.90625 -0.296875 2.90625 -0.890625 C 2.90625 -1.785156 2.921875 -2.679688 2.953125 -3.578125 C 2.992188 -4.472656 3.050781 -5.367188 3.125 -6.265625 C 3.28125 -8.503906 3.335938 -10.757812 3.296875 -13.03125 C 3.265625 -15.300781 3.25 -17.554688 3.25 -19.796875 C 3.25 -20.472656 3.582031 -20.769531 4.25 -20.6875 C 5.070312 -20.613281 6.0625 -20.578125 7.21875 -20.578125 C 8.375 -20.578125 9.4375 -20.554688 10.40625 -20.515625 C 11.375 -20.484375 12.003906 -20.46875 12.296875 -20.46875 C 13.421875 -20.394531 14.953125 -20.335938 16.890625 -20.296875 C 18.828125 -20.265625 20.875 -20.285156 23.03125 -20.359375 C 25.195312 -20.429688 27.226562 -20.539062 29.125 -20.6875 C 31.03125 -20.84375 32.507812 -21.066406 33.5625 -21.359375 C 35.125 -21.734375 35.941406 -22.707031 36.015625 -24.28125 C 36.085938 -25.164062 35.65625 -25.773438 34.71875 -26.109375 C 33.789062 -26.453125 32.65625 -26.625 31.3125 -26.625 C 29.976562 -26.625 28.640625 -26.566406 27.296875 -26.453125 C 25.953125 -26.335938 24.90625 -26.28125 24.15625 -26.28125 C 21.769531 -26.132812 19.441406 -26.226562 17.171875 -26.5625 C 14.898438 -26.894531 12.753906 -27.734375 10.734375 -29.078125 C 9.242188 -30.046875 7.921875 -31.296875 6.765625 -32.828125 C 5.609375 -34.359375 4.734375 -35.941406 4.140625 -37.578125 C 2.867188 -40.941406 2.398438 -44.445312 2.734375 -48.09375 C 3.078125 -51.75 3.992188 -55.21875 5.484375 -58.5 C 6.378906 -60.4375 7.492188 -62.1875 8.828125 -63.75 C 10.171875 -65.320312 11.773438 -66.554688 13.640625 -67.453125 C 15.210938 -68.191406 16.835938 -68.859375 18.515625 -69.453125 C 20.191406 -70.054688 21.890625 -70.359375 23.609375 -70.359375 Z M 64.875 -70.359375 "/></g></g></g><g fill="#46d5d0" fill-opacity="1"><g transform="translate(478.421858, 115.279711)"><g><path d="M 65.21875 -70.140625 C 65.21875 -67.148438 65.289062 -64.144531 65.4375 -61.125 C 65.582031 -58.101562 65.582031 -55.101562 65.4375 -52.125 C 65.363281 -50.707031 65.289062 -49.269531 65.21875 -47.8125 C 65.144531 -46.363281 65.144531 -44.894531 65.21875 -43.40625 C 65.21875 -42.726562 64.914062 -42.351562 64.3125 -42.28125 C 63.125 -42.132812 61.726562 -42.078125 60.125 -42.109375 C 58.519531 -42.148438 57.007812 -42.148438 55.59375 -42.109375 C 54.175781 -42.078125 53.242188 -41.910156 52.796875 -41.609375 C 52.578125 -41.460938 52.316406 -41.21875 52.015625 -40.875 C 51.710938 -40.539062 51.488281 -40.039062 51.34375 -39.375 C 51.269531 -38.78125 51.195312 -37.472656 51.125 -35.453125 C 51.050781 -33.441406 51.015625 -31.035156 51.015625 -28.234375 C 51.015625 -25.441406 51.015625 -22.535156 51.015625 -19.515625 C 51.015625 -16.492188 51.015625 -13.640625 51.015625 -10.953125 C 51.015625 -8.273438 51.015625 -6.039062 51.015625 -4.25 C 51.015625 -2.457031 51.050781 -1.453125 51.125 -1.234375 C 51.125 -0.410156 50.785156 0 50.109375 0 L 18.90625 0 C 18.3125 0 17.972656 -0.375 17.890625 -1.125 C 17.890625 -2.09375 17.910156 -3.734375 17.953125 -6.046875 C 17.992188 -8.359375 18.050781 -10.96875 18.125 -13.875 C 18.195312 -16.78125 18.269531 -19.664062 18.34375 -22.53125 C 18.414062 -25.40625 18.46875 -27.882812 18.5 -29.96875 C 18.539062 -32.0625 18.523438 -33.40625 18.453125 -34 C 18.304688 -35.125 18.25 -36.242188 18.28125 -37.359375 C 18.320312 -38.472656 17.929688 -39.441406 17.109375 -40.265625 C 16.441406 -40.867188 15.71875 -41.300781 14.9375 -41.5625 C 14.15625 -41.820312 13.351562 -41.988281 12.53125 -42.0625 C 11.851562 -42.132812 10.84375 -42.171875 9.5 -42.171875 C 8.164062 -42.171875 6.957031 -42.171875 5.875 -42.171875 C 4.789062 -42.171875 4.25 -42.171875 4.25 -42.171875 C 3.582031 -42.171875 3.25 -42.546875 3.25 -43.296875 C 3.25 -43.296875 3.25 -43.796875 3.25 -44.796875 C 3.25 -45.804688 3.226562 -46.925781 3.1875 -48.15625 C 3.144531 -49.382812 3.085938 -50.335938 3.015625 -51.015625 C 2.941406 -52.054688 2.867188 -53.5625 2.796875 -55.53125 C 2.722656 -57.507812 2.6875 -59.5625 2.6875 -61.6875 C 2.6875 -63.8125 2.6875 -65.640625 2.6875 -67.171875 C 2.6875 -68.703125 2.6875 -69.539062 2.6875 -69.6875 C 2.6875 -70.132812 3.019531 -70.359375 3.6875 -70.359375 L 64.984375 -70.359375 C 64.984375 -70.359375 65.019531 -70.335938 65.09375 -70.296875 C 65.175781 -70.265625 65.21875 -70.210938 65.21875 -70.140625 Z M 65.21875 -70.140625 "/></g></g></g></svg>