<?xml version="1.0" encoding="UTF-8"?> <svg xmlns="http://www.w3.org/2000/svg" xmlns:xlink="http://www.w3.org/1999/xlink" width="750" zoomAndPan="magnify" viewBox="0 0 562.5 112.499997" height="150" preserveAspectRatio="xMidYMid meet" version="1.0"><defs><g></g><clipPath id="a3f0efea88"><path d="M 0.996094 0 L 117 0 L 117 112.003906 L 0.996094 112.003906 Z M 0.996094 0 " clip-rule="nonzero"></path></clipPath><clipPath id="cf5b7d89e0"><path d="M 19 15 L 60 15 L 60 98 L 19 98 Z M 19 15 " clip-rule="nonzero"></path></clipPath><clipPath id="9dff19ee63"><path d="M 0.996094 25.972656 L 56.503906 6.015625 L 82.269531 77.6875 L 26.761719 97.640625 Z M 0.996094 25.972656 " clip-rule="nonzero"></path></clipPath><clipPath id="b8931fe17f"><path d="M 0.996094 25.972656 L 56.503906 6.015625 L 82.269531 77.6875 L 26.761719 97.640625 Z M 0.996094 25.972656 " clip-rule="nonzero"></path></clipPath></defs><g clip-path="url(#a3f0efea88)"><path stroke-linecap="butt" transform="matrix(1.118123, 0, 0, 1.118123, 6.055698, 3.044122)" fill="none" stroke-linejoin="miter" d="M 61.286943 59.585443 L 61.286943 66.495741 C 61.286943 68.501056 60.885182 70.23387 60.088646 71.694186 C 59.288617 73.157996 58.607369 74.237511 58.048396 74.932733 C 57.080675 76.190422 56.001159 77.151156 54.809849 77.814936 C 53.636007 78.475222 52.804535 78.978297 52.31194 79.317174 C 50.851624 80.166114 49.279514 80.658709 47.595609 80.794958 C 45.929172 80.931208 44.860137 81.001079 44.385011 81.001079 L 3.440271 81.001079 C 2.881298 81.001079 2.633254 80.718099 2.703126 80.159127 C 2.856843 79.121534 3.00008 77.353783 3.13633 74.855875 C 3.272579 72.340498 3.356425 69.570091 3.391361 66.544652 C 3.426297 63.519213 3.457739 60.664959 3.492675 57.978397 C 3.52761 55.295329 3.510142 53.255079 3.440271 51.861141 C 3.373893 50.537075 3.304021 48.591152 3.237643 46.023372 C 3.171265 43.441617 3.118862 40.762042 3.083926 37.991635 C 3.04899 35.207253 3.017548 32.698863 2.982612 30.473454 C 2.947676 28.230576 2.930208 26.766767 2.930208 26.089013 C 2.930208 25.10033 2.947676 23.842642 2.982612 22.315948 C 3.017548 20.785761 3.035016 19.391823 3.035016 18.134134 C 3.035016 16.876446 3.035016 16.177731 3.035016 16.044975 C 3.035016 15.566354 3.272579 15.328791 3.747706 15.328791 L 44.688952 15.328791 C 46.219139 15.328791 47.917019 15.506963 49.789577 15.863308 C 51.676109 16.205679 53.11197 16.722729 54.097159 17.421444 C 54.928631 17.962949 55.847442 18.693107 56.850099 19.611918 C 57.870224 20.513261 58.72615 21.837328 59.424866 23.591104 C 60.120088 25.323919 60.469446 27.720514 60.469446 30.777395 C 60.469446 33.142548 60.155024 35.001131 59.52618 36.360133 C 58.897336 37.722629 58.202114 38.952369 57.43702 40.056339 C 56.602055 41.181272 55.693724 42.054666 54.708535 42.68351 C 53.740814 43.312355 52.804535 43.86434 51.903192 44.339467 C 51.274347 44.629434 50.816689 44.985779 50.526722 45.411995 C 50.254223 45.820744 50.568645 46.271416 51.469988 46.76401 C 52.304953 47.239137 53.237739 47.619937 54.275331 47.909904 C 55.330392 48.182403 56.518209 48.947497 57.842275 50.205185 C 58.967207 51.375534 59.816147 52.692613 60.392587 54.156422 C 60.986496 55.616738 61.286943 57.426412 61.286943 59.585443 Z M 32.681523 69.398905 C 33.516488 68.364806 33.87982 67.215419 33.778506 65.95773 C 33.677193 64.700042 33.624789 63.48777 33.624789 62.313928 C 33.558411 61.05624 33.446616 59.697238 33.292899 58.233428 C 33.156649 56.773113 32.468414 55.658661 31.228194 54.893567 C 30.669222 54.470844 30.07182 54.334595 29.442976 54.488312 C 28.681375 54.488312 28.297082 54.970426 28.297082 55.941641 C 28.366953 56.773113 28.366953 57.936474 28.297082 59.431726 C 28.230704 60.926977 28.160832 62.467645 28.094454 64.046743 C 28.024583 65.611866 28.024583 66.988336 28.094454 68.176153 C 28.160832 69.349995 28.366953 70.03823 28.70583 70.240858 C 29.401053 70.733452 30.117236 70.862715 30.847394 70.625151 C 31.577552 70.37012 32.188928 69.961371 32.681523 69.398905 Z M 31.228194 42.351621 C 32.828253 41.740244 33.726103 40.618806 33.932224 38.987304 C 34.134851 37.338335 34.236165 35.850071 34.236165 34.526005 C 34.169787 33.201938 34.085941 31.916302 33.981134 30.676081 C 33.87982 29.418393 33.345303 28.230576 32.377581 27.109138 C 31.612488 26.274172 30.7356 26.102987 29.75041 26.599075 C 29.121566 26.937952 28.807144 27.42356 28.807144 28.052404 C 28.89099 30.564287 28.873522 32.800177 28.754741 34.756581 C 28.653427 36.692023 28.534645 38.920926 28.398396 41.436303 C 28.398396 41.977808 28.730285 42.327165 29.394065 42.480883 C 30.057845 42.617133 30.669222 42.571716 31.228194 42.351621 Z M 31.228194 42.351621 " stroke="#fefcfe" stroke-width="6.657221" stroke-opacity="1" stroke-miterlimit="4"></path></g><g fill="#fefcfe" fill-opacity="1"><g transform="translate(6.055698, 93.612074)"><g><path d="M 68.53125 -23.9375 L 68.53125 -16.234375 C 68.53125 -13.972656 68.082031 -12.023438 67.1875 -10.390625 C 66.289062 -8.753906 65.53125 -7.546875 64.90625 -6.765625 C 63.820312 -5.367188 62.617188 -4.300781 61.296875 -3.5625 C 59.972656 -2.820312 59.035156 -2.257812 58.484375 -1.875 C 56.859375 -0.9375 55.109375 -0.390625 53.234375 -0.234375 C 51.367188 -0.078125 50.164062 0 49.625 0 L 3.859375 0 C 3.234375 0 2.957031 -0.3125 3.03125 -0.9375 C 3.1875 -2.101562 3.34375 -4.085938 3.5 -6.890625 C 3.65625 -9.691406 3.753906 -12.785156 3.796875 -16.171875 C 3.835938 -19.554688 3.875 -22.742188 3.90625 -25.734375 C 3.945312 -28.734375 3.929688 -31.015625 3.859375 -32.578125 C 3.773438 -34.054688 3.691406 -36.234375 3.609375 -39.109375 C 3.535156 -41.992188 3.476562 -44.988281 3.4375 -48.09375 C 3.40625 -51.207031 3.367188 -54.007812 3.328125 -56.5 C 3.285156 -59 3.265625 -60.632812 3.265625 -61.40625 C 3.265625 -62.5 3.285156 -63.898438 3.328125 -65.609375 C 3.367188 -67.328125 3.390625 -68.882812 3.390625 -70.28125 C 3.390625 -71.6875 3.390625 -72.46875 3.390625 -72.625 C 3.390625 -73.164062 3.660156 -73.4375 4.203125 -73.4375 L 49.96875 -73.4375 C 51.675781 -73.4375 53.582031 -73.238281 55.6875 -72.84375 C 57.789062 -72.457031 59.382812 -71.875 60.46875 -71.09375 C 61.40625 -70.476562 62.4375 -69.660156 63.5625 -68.640625 C 64.695312 -67.628906 65.648438 -66.148438 66.421875 -64.203125 C 67.203125 -62.265625 67.59375 -59.582031 67.59375 -56.15625 C 67.59375 -53.507812 67.242188 -51.425781 66.546875 -49.90625 C 65.847656 -48.394531 65.070312 -47.015625 64.21875 -45.765625 C 63.28125 -44.515625 62.265625 -43.539062 61.171875 -42.84375 C 60.085938 -42.144531 59.039062 -41.523438 58.03125 -40.984375 C 57.320312 -40.671875 56.8125 -40.28125 56.5 -39.8125 C 56.195312 -39.34375 56.550781 -38.835938 57.5625 -38.296875 C 58.488281 -37.753906 59.535156 -37.328125 60.703125 -37.015625 C 61.878906 -36.703125 63.203125 -35.84375 64.671875 -34.4375 C 65.921875 -33.113281 66.875 -31.632812 67.53125 -30 C 68.195312 -28.363281 68.53125 -26.34375 68.53125 -23.9375 Z M 36.546875 -12.953125 C 37.472656 -14.117188 37.878906 -15.398438 37.765625 -16.796875 C 37.648438 -18.203125 37.59375 -19.566406 37.59375 -20.890625 C 37.519531 -22.296875 37.40625 -23.816406 37.25 -25.453125 C 37.09375 -27.085938 36.3125 -28.332031 34.90625 -29.1875 C 34.28125 -29.65625 33.617188 -29.8125 32.921875 -29.65625 C 32.066406 -29.65625 31.640625 -29.109375 31.640625 -28.015625 C 31.710938 -27.085938 31.707031 -25.785156 31.625 -24.109375 C 31.550781 -22.429688 31.472656 -20.71875 31.390625 -18.96875 C 31.316406 -17.21875 31.316406 -15.679688 31.390625 -14.359375 C 31.472656 -13.035156 31.710938 -12.257812 32.109375 -12.03125 C 32.890625 -11.476562 33.6875 -11.335938 34.5 -11.609375 C 35.3125 -11.890625 35.992188 -12.335938 36.546875 -12.953125 Z M 34.90625 -43.203125 C 36.695312 -43.898438 37.707031 -45.160156 37.9375 -46.984375 C 38.175781 -48.816406 38.296875 -50.472656 38.296875 -51.953125 C 38.210938 -53.429688 38.113281 -54.867188 38 -56.265625 C 37.882812 -57.671875 37.28125 -59 36.1875 -60.25 C 35.332031 -61.175781 34.363281 -61.367188 33.28125 -60.828125 C 32.570312 -60.441406 32.21875 -59.894531 32.21875 -59.1875 C 32.300781 -56.382812 32.28125 -53.894531 32.15625 -51.71875 C 32.039062 -49.539062 31.90625 -47.050781 31.75 -44.25 C 31.75 -43.625 32.117188 -43.234375 32.859375 -43.078125 C 33.597656 -42.921875 34.28125 -42.960938 34.90625 -43.203125 Z M 34.90625 -43.203125 "></path></g></g></g><g clip-path="url(#cf5b7d89e0)"><g clip-path="url(#9dff19ee63)"><g clip-path="url(#b8931fe17f)"><path fill="#020f1e" d="M 31.332031 15.066406 L 19.371094 57.617188 L 32.890625 57.308594 L 26.800781 97.75 L 55.417969 44.660156 L 42.644531 44.820312 L 59.691406 15.019531 Z M 31.332031 15.066406 " fill-opacity="1" fill-rule="nonzero"></path></g></g></g><g fill="#fefcfe" fill-opacity="1"><g transform="translate(78.345216, 91.208467)"><g><path d="M 36.109375 -2.21875 C 34.160156 -1.363281 32.367188 -0.78125 30.734375 -0.46875 C 29.097656 -0.15625 27.890625 0 27.109375 0 L 21.625 0 C 18.8125 0 16.039062 -0.523438 13.3125 -1.578125 C 10.59375 -2.628906 8.414062 -4.398438 6.78125 -6.890625 C 5.613281 -8.679688 4.773438 -10.785156 4.265625 -13.203125 C 3.753906 -15.617188 3.441406 -17.992188 3.328125 -20.328125 C 3.210938 -22.671875 3.15625 -24.539062 3.15625 -25.9375 L 3.15625 -72.6875 C 3.15625 -73.226562 3.347656 -73.5 3.734375 -73.5 L 19.984375 -73.5 C 20.367188 -73.5 20.5625 -73.226562 20.5625 -72.6875 C 20.5625 -70.582031 20.5625 -68.4375 20.5625 -66.25 C 20.5625 -64.070312 20.5625 -61.929688 20.5625 -59.828125 C 20.5625 -58.742188 20.5625 -57.128906 20.5625 -54.984375 C 20.5625 -52.835938 20.539062 -50.554688 20.5 -48.140625 C 20.46875 -45.734375 20.46875 -43.535156 20.5 -41.546875 C 20.539062 -39.554688 20.5625 -38.171875 20.5625 -37.390625 C 20.71875 -35.753906 20.894531 -34.140625 21.09375 -32.546875 C 21.289062 -30.953125 21.695312 -29.84375 22.3125 -29.21875 C 23.019531 -28.507812 23.742188 -28.269531 24.484375 -28.5 C 25.222656 -28.738281 25.707031 -29.015625 25.9375 -29.328125 C 26.71875 -30.492188 27.109375 -31.894531 27.109375 -33.53125 C 27.109375 -35.175781 27.148438 -36.773438 27.234375 -38.328125 C 27.234375 -39.109375 27.234375 -40.566406 27.234375 -42.703125 C 27.234375 -44.847656 27.234375 -47.222656 27.234375 -49.828125 C 27.234375 -52.441406 27.25 -54.914062 27.28125 -57.25 C 27.320312 -59.59375 27.34375 -61.390625 27.34375 -62.640625 C 27.425781 -64.347656 27.46875 -66.039062 27.46875 -67.71875 C 27.46875 -69.394531 27.425781 -71.050781 27.34375 -72.6875 C 27.34375 -73.226562 27.5 -73.5 27.8125 -73.5 L 45.453125 -73.5 C 45.847656 -73.5 46.046875 -73.226562 46.046875 -72.6875 L 46.046875 -28.28125 C 46.046875 -26.175781 46.003906 -23.875 45.921875 -21.375 C 45.847656 -18.882812 45.578125 -16.453125 45.109375 -14.078125 C 44.640625 -11.703125 43.820312 -9.695312 42.65625 -8.0625 C 41.488281 -6.351562 40.492188 -5.109375 39.671875 -4.328125 C 38.859375 -3.546875 37.671875 -2.84375 36.109375 -2.21875 Z M 36.109375 -2.21875 "></path></g></g></g><g fill="#fefcfe" fill-opacity="1"><g transform="translate(124.382814, 91.208467)"><g><path d="M 45.8125 -15.546875 C 45.8125 -14.679688 45.8125 -13.429688 45.8125 -11.796875 C 45.8125 -10.160156 45.8125 -8.46875 45.8125 -6.71875 C 45.8125 -4.96875 45.828125 -3.488281 45.859375 -2.28125 C 45.898438 -1.070312 45.921875 -0.46875 45.921875 -0.46875 C 45.921875 -0.15625 45.804688 0 45.578125 0 L 3.15625 0 C 3 0 2.921875 -0.15625 2.921875 -0.46875 C 2.921875 -2.019531 2.957031 -3.59375 3.03125 -5.1875 C 3.113281 -6.789062 3.191406 -8.375 3.265625 -9.9375 C 3.503906 -13.050781 3.625 -16.515625 3.625 -20.328125 C 3.625 -24.148438 3.625 -27.617188 3.625 -30.734375 L 3.625 -30.84375 C 3.625 -31 3.660156 -31.117188 3.734375 -31.203125 C 5.679688 -32.367188 7.53125 -33.492188 9.28125 -34.578125 C 11.039062 -35.671875 12.894531 -36.726562 14.84375 -37.75 C 16.394531 -38.53125 18.066406 -39.582031 19.859375 -40.90625 C 21.648438 -42.226562 23.484375 -43.863281 25.359375 -45.8125 C 25.984375 -46.4375 26.21875 -47.253906 26.0625 -48.265625 C 25.820312 -49.359375 25.351562 -49.90625 24.65625 -49.90625 C 21.769531 -49.75 19.3125 -49.515625 17.28125 -49.203125 C 15.257812 -48.890625 13.238281 -48.613281 11.21875 -48.375 C 9.195312 -48.144531 6.78125 -47.988281 3.96875 -47.90625 C 3.738281 -47.90625 3.625 -48.0625 3.625 -48.375 C 3.625 -51.644531 3.582031 -54.800781 3.5 -57.84375 C 3.425781 -60.882812 3.390625 -64 3.390625 -67.1875 C 3.390625 -69.21875 3.347656 -71.164062 3.265625 -73.03125 C 3.191406 -73.34375 3.269531 -73.5 3.5 -73.5 L 45.578125 -73.5 C 45.734375 -73.5 45.8125 -73.34375 45.8125 -73.03125 C 45.8125 -73.03125 45.8125 -72.289062 45.8125 -70.8125 C 45.8125 -69.332031 45.828125 -67.441406 45.859375 -65.140625 C 45.898438 -62.847656 45.921875 -60.4375 45.921875 -57.90625 C 45.921875 -55.375 45.921875 -52.957031 45.921875 -50.65625 C 45.921875 -48.363281 45.921875 -46.492188 45.921875 -45.046875 C 45.921875 -43.609375 45.921875 -42.890625 45.921875 -42.890625 C 45.921875 -42.734375 45.882812 -42.613281 45.8125 -42.53125 C 43.15625 -40.269531 40.832031 -38.378906 38.84375 -36.859375 C 36.863281 -35.347656 34.84375 -33.832031 32.78125 -32.3125 C 30.71875 -30.789062 28.242188 -28.898438 25.359375 -26.640625 C 24.660156 -26.097656 24.425781 -25.28125 24.65625 -24.1875 C 24.894531 -23.09375 25.363281 -22.546875 26.0625 -22.546875 C 28.707031 -22.546875 30.90625 -22.660156 32.65625 -22.890625 C 34.414062 -23.128906 36.269531 -23.425781 38.21875 -23.78125 C 40.164062 -24.132812 42.695312 -24.546875 45.8125 -25.015625 C 45.96875 -25.015625 46.046875 -24.859375 46.046875 -24.546875 C 46.046875 -22.597656 46.003906 -21.097656 45.921875 -20.046875 C 45.847656 -18.992188 45.8125 -17.492188 45.8125 -15.546875 Z M 45.8125 -15.546875 "></path></g></g></g><g fill="#fefcfe" fill-opacity="1"><g transform="translate(170.303553, 91.208467)"><g><path d="M 45.8125 -15.546875 C 45.8125 -14.679688 45.8125 -13.429688 45.8125 -11.796875 C 45.8125 -10.160156 45.8125 -8.46875 45.8125 -6.71875 C 45.8125 -4.96875 45.828125 -3.488281 45.859375 -2.28125 C 45.898438 -1.070312 45.921875 -0.46875 45.921875 -0.46875 C 45.921875 -0.15625 45.804688 0 45.578125 0 L 3.15625 0 C 3 0 2.921875 -0.15625 2.921875 -0.46875 C 2.921875 -2.019531 2.957031 -3.59375 3.03125 -5.1875 C 3.113281 -6.789062 3.191406 -8.375 3.265625 -9.9375 C 3.503906 -13.050781 3.625 -16.515625 3.625 -20.328125 C 3.625 -24.148438 3.625 -27.617188 3.625 -30.734375 L 3.625 -30.84375 C 3.625 -31 3.660156 -31.117188 3.734375 -31.203125 C 5.679688 -32.367188 7.53125 -33.492188 9.28125 -34.578125 C 11.039062 -35.671875 12.894531 -36.726562 14.84375 -37.75 C 16.394531 -38.53125 18.066406 -39.582031 19.859375 -40.90625 C 21.648438 -42.226562 23.484375 -43.863281 25.359375 -45.8125 C 25.984375 -46.4375 26.21875 -47.253906 26.0625 -48.265625 C 25.820312 -49.359375 25.351562 -49.90625 24.65625 -49.90625 C 21.769531 -49.75 19.3125 -49.515625 17.28125 -49.203125 C 15.257812 -48.890625 13.238281 -48.613281 11.21875 -48.375 C 9.195312 -48.144531 6.78125 -47.988281 3.96875 -47.90625 C 3.738281 -47.90625 3.625 -48.0625 3.625 -48.375 C 3.625 -51.644531 3.582031 -54.800781 3.5 -57.84375 C 3.425781 -60.882812 3.390625 -64 3.390625 -67.1875 C 3.390625 -69.21875 3.347656 -71.164062 3.265625 -73.03125 C 3.191406 -73.34375 3.269531 -73.5 3.5 -73.5 L 45.578125 -73.5 C 45.734375 -73.5 45.8125 -73.34375 45.8125 -73.03125 C 45.8125 -73.03125 45.8125 -72.289062 45.8125 -70.8125 C 45.8125 -69.332031 45.828125 -67.441406 45.859375 -65.140625 C 45.898438 -62.847656 45.921875 -60.4375 45.921875 -57.90625 C 45.921875 -55.375 45.921875 -52.957031 45.921875 -50.65625 C 45.921875 -48.363281 45.921875 -46.492188 45.921875 -45.046875 C 45.921875 -43.609375 45.921875 -42.890625 45.921875 -42.890625 C 45.921875 -42.734375 45.882812 -42.613281 45.8125 -42.53125 C 43.15625 -40.269531 40.832031 -38.378906 38.84375 -36.859375 C 36.863281 -35.347656 34.84375 -33.832031 32.78125 -32.3125 C 30.71875 -30.789062 28.242188 -28.898438 25.359375 -26.640625 C 24.660156 -26.097656 24.425781 -25.28125 24.65625 -24.1875 C 24.894531 -23.09375 25.363281 -22.546875 26.0625 -22.546875 C 28.707031 -22.546875 30.90625 -22.660156 32.65625 -22.890625 C 34.414062 -23.128906 36.269531 -23.425781 38.21875 -23.78125 C 40.164062 -24.132812 42.695312 -24.546875 45.8125 -25.015625 C 45.96875 -25.015625 46.046875 -24.859375 46.046875 -24.546875 C 46.046875 -22.597656 46.003906 -21.097656 45.921875 -20.046875 C 45.847656 -18.992188 45.8125 -17.492188 45.8125 -15.546875 Z M 45.8125 -15.546875 "></path></g></g></g><g fill="#46d5d0" fill-opacity="1"><g transform="translate(213.826119, 93.72403)"><g><path d="M 68.59375 -23.953125 L 68.59375 -16.234375 C 68.59375 -13.984375 68.144531 -12.039062 67.25 -10.40625 C 66.351562 -8.769531 65.59375 -7.5625 64.96875 -6.78125 C 63.875 -5.375 62.664062 -4.300781 61.34375 -3.5625 C 60.019531 -2.820312 59.082031 -2.257812 58.53125 -1.875 C 56.894531 -0.9375 55.140625 -0.390625 53.265625 -0.234375 C 51.398438 -0.078125 50.195312 0 49.65625 0 L 3.859375 0 C 3.234375 0 2.957031 -0.3125 3.03125 -0.9375 C 3.1875 -2.101562 3.34375 -4.085938 3.5 -6.890625 C 3.65625 -9.691406 3.753906 -12.785156 3.796875 -16.171875 C 3.835938 -19.566406 3.875 -22.765625 3.90625 -25.765625 C 3.945312 -28.765625 3.929688 -31.039062 3.859375 -32.59375 C 3.773438 -34.070312 3.691406 -36.253906 3.609375 -39.140625 C 3.535156 -42.023438 3.476562 -45.023438 3.4375 -48.140625 C 3.40625 -51.253906 3.367188 -54.054688 3.328125 -56.546875 C 3.285156 -59.046875 3.265625 -60.679688 3.265625 -61.453125 C 3.265625 -62.546875 3.285156 -63.945312 3.328125 -65.65625 C 3.367188 -67.375 3.390625 -68.929688 3.390625 -70.328125 C 3.390625 -71.734375 3.390625 -72.515625 3.390625 -72.671875 C 3.390625 -73.222656 3.660156 -73.5 4.203125 -73.5 L 50.015625 -73.5 C 51.722656 -73.5 53.628906 -73.300781 55.734375 -72.90625 C 57.835938 -72.519531 59.4375 -71.9375 60.53125 -71.15625 C 61.457031 -70.53125 62.484375 -69.710938 63.609375 -68.703125 C 64.742188 -67.691406 65.703125 -66.210938 66.484375 -64.265625 C 67.265625 -62.316406 67.65625 -59.628906 67.65625 -56.203125 C 67.65625 -53.554688 67.300781 -51.472656 66.59375 -49.953125 C 65.894531 -48.429688 65.117188 -47.046875 64.265625 -45.796875 C 63.328125 -44.554688 62.3125 -43.582031 61.21875 -42.875 C 60.132812 -42.175781 59.085938 -41.554688 58.078125 -41.015625 C 57.367188 -40.703125 56.859375 -40.3125 56.546875 -39.84375 C 56.234375 -39.375 56.585938 -38.867188 57.609375 -38.328125 C 58.535156 -37.773438 59.582031 -37.34375 60.75 -37.03125 C 61.925781 -36.726562 63.253906 -35.875 64.734375 -34.46875 C 65.972656 -33.144531 66.925781 -31.664062 67.59375 -30.03125 C 68.257812 -28.394531 68.59375 -26.367188 68.59375 -23.953125 Z M 36.578125 -12.96875 C 37.503906 -14.132812 37.910156 -15.414062 37.796875 -16.8125 C 37.679688 -18.21875 37.625 -19.585938 37.625 -20.921875 C 37.539062 -22.316406 37.421875 -23.832031 37.265625 -25.46875 C 37.117188 -27.101562 36.34375 -28.347656 34.9375 -29.203125 C 34.3125 -29.671875 33.648438 -29.828125 32.953125 -29.671875 C 32.097656 -29.671875 31.671875 -29.128906 31.671875 -28.046875 C 31.742188 -27.109375 31.738281 -25.800781 31.65625 -24.125 C 31.582031 -22.445312 31.503906 -20.734375 31.421875 -18.984375 C 31.347656 -17.234375 31.347656 -15.695312 31.421875 -14.375 C 31.503906 -13.050781 31.738281 -12.269531 32.125 -12.03125 C 32.90625 -11.488281 33.703125 -11.351562 34.515625 -11.625 C 35.335938 -11.894531 36.023438 -12.34375 36.578125 -12.96875 Z M 34.9375 -43.234375 C 36.726562 -43.929688 37.738281 -45.195312 37.96875 -47.03125 C 38.207031 -48.863281 38.328125 -50.519531 38.328125 -52 C 38.242188 -53.476562 38.144531 -54.914062 38.03125 -56.3125 C 37.914062 -57.71875 37.3125 -59.046875 36.21875 -60.296875 C 35.363281 -61.222656 34.390625 -61.414062 33.296875 -60.875 C 32.597656 -60.488281 32.25 -59.941406 32.25 -59.234375 C 32.320312 -56.429688 32.300781 -53.9375 32.1875 -51.75 C 32.070312 -49.570312 31.9375 -47.082031 31.78125 -44.28125 C 31.78125 -43.65625 32.148438 -43.265625 32.890625 -43.109375 C 33.628906 -42.953125 34.3125 -42.992188 34.9375 -43.234375 Z M 34.9375 -43.234375 "></path></g></g></g><g fill="#46d5d0" fill-opacity="1"><g transform="translate(281.817638, 93.72403)"><g><path d="M 67.765625 -50.828125 C 67.765625 -48.804688 67.765625 -46.351562 67.765625 -43.46875 C 67.765625 -40.582031 67.765625 -37.695312 67.765625 -34.8125 C 67.765625 -31.9375 67.765625 -29.523438 67.765625 -27.578125 C 67.765625 -24.535156 67.394531 -21.921875 66.65625 -19.734375 C 65.914062 -17.554688 64.960938 -15.378906 63.796875 -13.203125 C 62.785156 -11.335938 61.539062 -9.679688 60.0625 -8.234375 C 58.582031 -6.796875 57.023438 -5.570312 55.390625 -4.5625 C 53.359375 -3.3125 51.3125 -2.253906 49.25 -1.390625 C 47.1875 -0.535156 44.441406 -0.109375 41.015625 -0.109375 C 40.546875 -0.109375 39.507812 -0.109375 37.90625 -0.109375 C 36.3125 -0.109375 34.578125 -0.109375 32.703125 -0.109375 C 30.835938 -0.109375 29.1875 -0.109375 27.75 -0.109375 C 26.3125 -0.109375 25.550781 -0.109375 25.46875 -0.109375 C 22.28125 -0.265625 19.28125 -1.0625 16.46875 -2.5 C 13.664062 -3.945312 11.410156 -5.53125 9.703125 -7.25 C 8.765625 -8.175781 7.769531 -9.535156 6.71875 -11.328125 C 5.664062 -13.117188 4.785156 -14.988281 4.078125 -16.9375 C 3.378906 -18.882812 3.03125 -20.597656 3.03125 -22.078125 C 3.03125 -23.171875 3.03125 -24.960938 3.03125 -27.453125 C 3.03125 -29.953125 3.03125 -32.71875 3.03125 -35.75 C 3.03125 -38.789062 3.03125 -41.710938 3.03125 -44.515625 C 3.03125 -47.316406 3.03125 -49.578125 3.03125 -51.296875 C 3.03125 -54.640625 3.554688 -57.578125 4.609375 -60.109375 C 5.660156 -62.640625 6.890625 -64.648438 8.296875 -66.140625 C 10.785156 -68.785156 13.140625 -70.554688 15.359375 -71.453125 C 17.578125 -72.347656 20.285156 -72.988281 23.484375 -73.375 C 23.566406 -73.457031 24.425781 -73.476562 26.0625 -73.4375 C 27.695312 -73.394531 29.703125 -73.375 32.078125 -73.375 C 34.453125 -73.375 36.828125 -73.375 39.203125 -73.375 C 41.578125 -73.375 43.503906 -73.375 44.984375 -73.375 C 48.023438 -73.375 50.828125 -72.945312 53.390625 -72.09375 C 55.960938 -71.238281 58.300781 -69.796875 60.40625 -67.765625 C 62.59375 -65.742188 64.363281 -63.15625 65.71875 -60 C 67.082031 -56.84375 67.765625 -53.785156 67.765625 -50.828125 Z M 30.609375 -29.796875 C 30.609375 -26.753906 31.015625 -24.742188 31.828125 -23.765625 C 32.648438 -22.796875 33.6875 -22.3125 34.9375 -22.3125 C 36.488281 -22.3125 37.457031 -23.015625 37.84375 -24.421875 C 38.238281 -25.828125 38.4375 -26.957031 38.4375 -27.8125 C 38.4375 -30.769531 38.492188 -33.882812 38.609375 -37.15625 C 38.734375 -40.425781 38.753906 -43.148438 38.671875 -45.328125 C 38.515625 -47.117188 38.238281 -48.640625 37.84375 -49.890625 C 37.457031 -51.140625 36.488281 -51.765625 34.9375 -51.765625 C 33.53125 -51.765625 32.535156 -51.394531 31.953125 -50.65625 C 31.367188 -49.914062 31 -49.054688 30.84375 -48.078125 C 30.6875 -47.109375 30.609375 -46.3125 30.609375 -45.6875 C 30.609375 -44.90625 30.609375 -43.640625 30.609375 -41.890625 C 30.609375 -40.140625 30.609375 -38.171875 30.609375 -35.984375 C 30.609375 -33.804688 30.609375 -31.742188 30.609375 -29.796875 Z M 30.609375 -29.796875 "></path></g></g></g><g fill="#46d5d0" fill-opacity="1"><g transform="translate(349.341876, 93.72403)"><g><path d="M 67.765625 -50.828125 C 67.765625 -48.804688 67.765625 -46.351562 67.765625 -43.46875 C 67.765625 -40.582031 67.765625 -37.695312 67.765625 -34.8125 C 67.765625 -31.9375 67.765625 -29.523438 67.765625 -27.578125 C 67.765625 -24.535156 67.394531 -21.921875 66.65625 -19.734375 C 65.914062 -17.554688 64.960938 -15.378906 63.796875 -13.203125 C 62.785156 -11.335938 61.539062 -9.679688 60.0625 -8.234375 C 58.582031 -6.796875 57.023438 -5.570312 55.390625 -4.5625 C 53.359375 -3.3125 51.3125 -2.253906 49.25 -1.390625 C 47.1875 -0.535156 44.441406 -0.109375 41.015625 -0.109375 C 40.546875 -0.109375 39.507812 -0.109375 37.90625 -0.109375 C 36.3125 -0.109375 34.578125 -0.109375 32.703125 -0.109375 C 30.835938 -0.109375 29.1875 -0.109375 27.75 -0.109375 C 26.3125 -0.109375 25.550781 -0.109375 25.46875 -0.109375 C 22.28125 -0.265625 19.28125 -1.0625 16.46875 -2.5 C 13.664062 -3.945312 11.410156 -5.53125 9.703125 -7.25 C 8.765625 -8.175781 7.769531 -9.535156 6.71875 -11.328125 C 5.664062 -13.117188 4.785156 -14.988281 4.078125 -16.9375 C 3.378906 -18.882812 3.03125 -20.597656 3.03125 -22.078125 C 3.03125 -23.171875 3.03125 -24.960938 3.03125 -27.453125 C 3.03125 -29.953125 3.03125 -32.71875 3.03125 -35.75 C 3.03125 -38.789062 3.03125 -41.710938 3.03125 -44.515625 C 3.03125 -47.316406 3.03125 -49.578125 3.03125 -51.296875 C 3.03125 -54.640625 3.554688 -57.578125 4.609375 -60.109375 C 5.660156 -62.640625 6.890625 -64.648438 8.296875 -66.140625 C 10.785156 -68.785156 13.140625 -70.554688 15.359375 -71.453125 C 17.578125 -72.347656 20.285156 -72.988281 23.484375 -73.375 C 23.566406 -73.457031 24.425781 -73.476562 26.0625 -73.4375 C 27.695312 -73.394531 29.703125 -73.375 32.078125 -73.375 C 34.453125 -73.375 36.828125 -73.375 39.203125 -73.375 C 41.578125 -73.375 43.503906 -73.375 44.984375 -73.375 C 48.023438 -73.375 50.828125 -72.945312 53.390625 -72.09375 C 55.960938 -71.238281 58.300781 -69.796875 60.40625 -67.765625 C 62.59375 -65.742188 64.363281 -63.15625 65.71875 -60 C 67.082031 -56.84375 67.765625 -53.785156 67.765625 -50.828125 Z M 30.609375 -29.796875 C 30.609375 -26.753906 31.015625 -24.742188 31.828125 -23.765625 C 32.648438 -22.796875 33.6875 -22.3125 34.9375 -22.3125 C 36.488281 -22.3125 37.457031 -23.015625 37.84375 -24.421875 C 38.238281 -25.828125 38.4375 -26.957031 38.4375 -27.8125 C 38.4375 -30.769531 38.492188 -33.882812 38.609375 -37.15625 C 38.734375 -40.425781 38.753906 -43.148438 38.671875 -45.328125 C 38.515625 -47.117188 38.238281 -48.640625 37.84375 -49.890625 C 37.457031 -51.140625 36.488281 -51.765625 34.9375 -51.765625 C 33.53125 -51.765625 32.535156 -51.394531 31.953125 -50.65625 C 31.367188 -49.914062 31 -49.054688 30.84375 -48.078125 C 30.6875 -47.109375 30.609375 -46.3125 30.609375 -45.6875 C 30.609375 -44.90625 30.609375 -43.640625 30.609375 -41.890625 C 30.609375 -40.140625 30.609375 -38.171875 30.609375 -35.984375 C 30.609375 -33.804688 30.609375 -31.742188 30.609375 -29.796875 Z M 30.609375 -29.796875 "></path></g></g></g><g fill="#46d5d0" fill-opacity="1"><g transform="translate(416.866114, 93.72403)"><g><path d="M 67.765625 -73.5 C 67.847656 -73.414062 67.925781 -73.296875 68 -73.140625 C 68.15625 -71.585938 68.210938 -70.285156 68.171875 -69.234375 C 68.140625 -68.179688 68.082031 -67.007812 68 -65.71875 C 67.925781 -64.4375 67.890625 -62.507812 67.890625 -59.9375 C 67.890625 -59 67.96875 -57.632812 68.125 -55.84375 C 68.28125 -54.050781 68.394531 -52.691406 68.46875 -51.765625 C 68.46875 -51.054688 68.117188 -50.703125 67.421875 -50.703125 C 64.773438 -50.785156 61.734375 -50.921875 58.296875 -51.109375 C 54.867188 -51.304688 51.65625 -51.484375 48.65625 -51.640625 C 45.664062 -51.796875 43.507812 -51.875 42.1875 -51.875 C 39.300781 -51.800781 36.785156 -51.566406 34.640625 -51.171875 C 32.503906 -50.785156 31.4375 -49.890625 31.4375 -48.484375 C 31.4375 -47.003906 31.84375 -46.109375 32.65625 -45.796875 C 33.476562 -45.484375 34.195312 -45.289062 34.8125 -45.21875 C 36.914062 -44.832031 38.671875 -44.695312 40.078125 -44.8125 C 41.484375 -44.925781 43.429688 -44.90625 45.921875 -44.75 C 48.492188 -44.59375 51.023438 -44.238281 53.515625 -43.6875 C 56.003906 -43.144531 58.222656 -42.054688 60.171875 -40.421875 C 61.265625 -39.492188 62.453125 -38.304688 63.734375 -36.859375 C 65.023438 -35.421875 66.117188 -33.335938 67.015625 -30.609375 C 67.910156 -27.890625 68.359375 -24.035156 68.359375 -19.046875 C 68.359375 -17.953125 68.101562 -16.351562 67.59375 -14.25 C 67.082031 -12.144531 66.085938 -9.96875 64.609375 -7.71875 C 63.910156 -6.695312 62.78125 -5.582031 61.21875 -4.375 C 59.664062 -3.175781 57.914062 -2.265625 55.96875 -1.640625 C 53.394531 -0.859375 50.820312 -0.425781 48.25 -0.34375 C 45.6875 -0.269531 43.816406 -0.234375 42.640625 -0.234375 C 42.335938 -0.234375 41.191406 -0.210938 39.203125 -0.171875 C 37.210938 -0.128906 34.753906 -0.109375 31.828125 -0.109375 C 28.910156 -0.109375 25.851562 -0.0859375 22.65625 -0.046875 C 19.46875 -0.015625 16.453125 0 13.609375 0 C 10.765625 0 8.46875 0 6.71875 0 C 4.96875 0 4.09375 0 4.09375 0 C 3.382812 0 3.03125 -0.3125 3.03125 -0.9375 C 3.03125 -1.875 3.050781 -2.804688 3.09375 -3.734375 C 3.132812 -4.671875 3.191406 -5.609375 3.265625 -6.546875 C 3.421875 -8.878906 3.476562 -11.234375 3.4375 -13.609375 C 3.40625 -15.984375 3.390625 -18.34375 3.390625 -20.6875 C 3.390625 -21.382812 3.738281 -21.691406 4.4375 -21.609375 C 5.289062 -21.535156 6.320312 -21.5 7.53125 -21.5 C 8.738281 -21.5 9.847656 -21.476562 10.859375 -21.4375 C 11.878906 -21.394531 12.546875 -21.375 12.859375 -21.375 C 14.023438 -21.300781 15.617188 -21.242188 17.640625 -21.203125 C 19.671875 -21.171875 21.8125 -21.191406 24.0625 -21.265625 C 26.320312 -21.335938 28.445312 -21.453125 30.4375 -21.609375 C 32.425781 -21.765625 33.960938 -22 35.046875 -22.3125 C 36.679688 -22.707031 37.539062 -23.722656 37.625 -25.359375 C 37.695312 -26.285156 37.242188 -26.925781 36.265625 -27.28125 C 35.296875 -27.632812 34.109375 -27.8125 32.703125 -27.8125 C 31.304688 -27.8125 29.90625 -27.75 28.5 -27.625 C 27.101562 -27.507812 26.015625 -27.453125 25.234375 -27.453125 C 22.742188 -27.296875 20.3125 -27.394531 17.9375 -27.75 C 15.5625 -28.101562 13.320312 -28.976562 11.21875 -30.375 C 9.65625 -31.382812 8.269531 -32.6875 7.0625 -34.28125 C 5.863281 -35.882812 4.953125 -37.546875 4.328125 -39.265625 C 3.003906 -42.765625 2.515625 -46.421875 2.859375 -50.234375 C 3.210938 -54.054688 4.164062 -57.679688 5.71875 -61.109375 C 6.65625 -63.128906 7.820312 -64.957031 9.21875 -66.59375 C 10.625 -68.226562 12.300781 -69.515625 14.25 -70.453125 C 15.882812 -71.234375 17.578125 -71.9375 19.328125 -72.5625 C 21.085938 -73.1875 22.863281 -73.5 24.65625 -73.5 Z M 67.765625 -73.5 "></path></g></g></g><g fill="#46d5d0" fill-opacity="1"><g transform="translate(484.974466, 93.72403)"><g><path d="M 68.125 -73.265625 C 68.125 -70.148438 68.203125 -67.015625 68.359375 -63.859375 C 68.515625 -60.703125 68.515625 -57.566406 68.359375 -54.453125 C 68.273438 -52.972656 68.191406 -51.472656 68.109375 -49.953125 C 68.035156 -48.429688 68.039062 -46.890625 68.125 -45.328125 C 68.125 -44.628906 67.8125 -44.242188 67.1875 -44.171875 C 65.9375 -44.015625 64.472656 -43.953125 62.796875 -43.984375 C 61.128906 -44.023438 59.550781 -44.023438 58.0625 -43.984375 C 56.582031 -43.953125 55.613281 -43.78125 55.15625 -43.46875 C 54.914062 -43.3125 54.640625 -43.054688 54.328125 -42.703125 C 54.015625 -42.359375 53.78125 -41.832031 53.625 -41.125 C 53.550781 -40.5 53.472656 -39.132812 53.390625 -37.03125 C 53.316406 -34.9375 53.28125 -32.425781 53.28125 -29.5 C 53.28125 -26.582031 53.28125 -23.546875 53.28125 -20.390625 C 53.28125 -17.234375 53.28125 -14.253906 53.28125 -11.453125 C 53.28125 -8.648438 53.28125 -6.3125 53.28125 -4.4375 C 53.28125 -2.570312 53.316406 -1.519531 53.390625 -1.28125 C 53.390625 -0.425781 53.039062 0 52.34375 0 L 19.75 0 C 19.125 0 18.769531 -0.390625 18.6875 -1.171875 C 18.6875 -2.179688 18.707031 -3.894531 18.75 -6.3125 C 18.789062 -8.726562 18.847656 -11.453125 18.921875 -14.484375 C 19.003906 -17.523438 19.082031 -20.546875 19.15625 -23.546875 C 19.238281 -26.546875 19.296875 -29.132812 19.328125 -31.3125 C 19.367188 -33.488281 19.351562 -34.890625 19.28125 -35.515625 C 19.125 -36.679688 19.0625 -37.847656 19.09375 -39.015625 C 19.132812 -40.191406 18.726562 -41.207031 17.875 -42.0625 C 17.175781 -42.6875 16.414062 -43.132812 15.59375 -43.40625 C 14.78125 -43.675781 13.945312 -43.851562 13.09375 -43.9375 C 12.382812 -44.007812 11.328125 -44.046875 9.921875 -44.046875 C 8.523438 -44.046875 7.257812 -44.046875 6.125 -44.046875 C 5 -44.046875 4.4375 -44.046875 4.4375 -44.046875 C 3.738281 -44.046875 3.390625 -44.4375 3.390625 -45.21875 C 3.390625 -45.21875 3.390625 -45.742188 3.390625 -46.796875 C 3.390625 -47.847656 3.367188 -49.015625 3.328125 -50.296875 C 3.285156 -51.585938 3.226562 -52.582031 3.15625 -53.28125 C 3.070312 -54.375 2.988281 -55.953125 2.90625 -58.015625 C 2.832031 -60.078125 2.796875 -62.21875 2.796875 -64.4375 C 2.796875 -66.65625 2.796875 -68.5625 2.796875 -70.15625 C 2.796875 -71.757812 2.796875 -72.640625 2.796875 -72.796875 C 2.796875 -73.265625 3.148438 -73.5 3.859375 -73.5 L 67.890625 -73.5 C 67.890625 -73.5 67.925781 -73.476562 68 -73.4375 C 68.082031 -73.394531 68.125 -73.335938 68.125 -73.265625 Z M 68.125 -73.265625 "></path></g></g></g></svg> 